<?xml version="1.0" encoding="UTF-8"?>
<svg version="1.1" xmlns="http://www.w3.org/2000/svg" width="265" height="273">
<path d="M0 0 C87.45 0 174.9 0 265 0 C265 90.09 265 180.18 265 273 C177.55 273 90.1 273 0 273 C0 182.91 0 92.82 0 0 Z " fill="#010001" transform="translate(0,0)"/>
<path d="M0 0 C1.0828125 0.8971875 1.0828125 0.8971875 2.1875 1.8125 C3.115625 2.4725 4.04375 3.1325 5 3.8125 C7.85001491 7.72109187 7.83669868 10.40951079 7.61328125 15.15234375 C6.89345004 19.64963781 4.84198645 22.3624581 1.48046875 25.30859375 C-1.4521946 27.2320612 -4.44220474 28.21223881 -7.75 29.375 C-20.26180723 34.07882544 -31.05876906 42.52673703 -36.9375 54.75 C-37.41445312 55.72839844 -37.89140625 56.70679688 -38.3828125 57.71484375 C-38.85460937 58.73707031 -39.32640625 59.75929687 -39.8125 60.8125 C-40.35003906 61.92367187 -40.88757813 63.03484375 -41.44140625 64.1796875 C-42.97761102 68.24997365 -43.42693458 71.69510877 -43.625 76 C-43.67591797 76.69802734 -43.72683594 77.39605469 -43.77929688 78.11523438 C-43.99817537 82.01423947 -43.71312526 84.43609513 -41.8125 87.8125 C-41.74851356 90.63856756 -42.2684028 93.00133111 -42.8125 95.8125 C-43.4725 96.4725 -44.1325 97.1325 -44.8125 97.8125 C-47.25 97.8125 -47.25 97.8125 -49.8125 96.8125 C-52.11673865 93.50975794 -52.8579391 91.60011106 -52.625 87.5625 C-51.8125 84.8125 -51.8125 84.8125 -49.8125 82.8125 C-49.65883123 80.60794416 -49.59041236 78.39722882 -49.5625 76.1875 C-48.7947469 59.04725599 -40.26322485 45.29740134 -27.8125 33.8125 C-27.1525 33.8125 -26.4925 33.8125 -25.8125 33.8125 C-26.3075 31.8325 -26.3075 31.8325 -26.8125 29.8125 C-31.23250475 29.8125 -33.57091552 31.13069325 -36.6875 34.0625 C-42.60203703 40.34100854 -47.08752252 48.06153675 -50.8125 55.8125 C-51.4725 55.8125 -52.1325 55.8125 -52.8125 55.8125 C-52.76029297 57.11574219 -52.76029297 57.11574219 -52.70703125 58.4453125 C-52.42763426 70.33964169 -52.42763426 70.33964169 -55.8125 74.8125 C-58 76.1875 -58 76.1875 -59.8125 76.8125 C-61.8125 75.25 -61.8125 75.25 -63.8125 72.8125 C-64.29927462 68.35039929 -64.05903766 64.74394091 -61.8125 60.8125 C-61.131875 60.503125 -60.45125 60.19375 -59.75 59.875 C-58.7909375 59.3490625 -58.7909375 59.3490625 -57.8125 58.8125 C-57.42419599 56.82244193 -57.10435063 54.8189731 -56.8125 52.8125 C-53.1278966 41.60607309 -45.32084193 32.88511611 -36.81640625 25.00390625 C-34.82791875 22.82936144 -34.17282991 21.68858782 -33.8125 18.8125 C-43.34270311 21.44438749 -50.76456183 29.49503007 -55.8125 37.8125 C-59.13786289 43.99922165 -62.29089798 50.24891828 -64.8125 56.8125 C-65.4725 56.8125 -66.1325 56.8125 -66.8125 56.8125 C-70.4365801 72.52538108 -70.4365801 72.52538108 -66.7578125 87.59765625 C-65.48096176 90.58928587 -65.51106648 93.13252253 -65.5 96.375 C-65.48324219 97.51066406 -65.46648437 98.64632812 -65.44921875 99.81640625 C-65.8125 102.8125 -65.8125 102.8125 -67.08203125 104.77734375 C-68.8125 105.8125 -68.8125 105.8125 -70.85546875 105.78125 C-74.281368 104.08539568 -74.86122528 101.02860715 -76.125 97.59765625 C-77.13262428 93.51563289 -76.89164255 89.86159042 -75.8125 85.8125 C-75.3175 85.3175 -75.3175 85.3175 -74.8125 84.8125 C-74.4836942 82.02063987 -74.19927325 79.23570793 -73.9375 76.4375 C-73.20647108 69.29153434 -71.98235752 62.67453674 -69.8125 55.8125 C-69.50892578 54.59240234 -69.50892578 54.59240234 -69.19921875 53.34765625 C-64.13355254 33.67546785 -48.14932549 16.93599017 -31.1171875 6.6875 C-27.10704001 4.41223901 -23.12271334 2.44120275 -18.8125 0.8125 C-17.843125 0.4 -16.87375 -0.0125 -15.875 -0.4375 C-10.53168814 -1.74606617 -5.1329971 -2.16726544 0 0 Z " fill="#75528E" transform="translate(140.8125,23.1875)"/>
<path d="M0 0 C2.70249451 0.37275786 3.79935135 0.78448849 5.6875 2.8125 C8.31213922 7.1868987 8.57846384 11.98011044 8 17 C7.67700928 17.6098877 7.35401855 18.21977539 7.02124023 18.84814453 C5.92176434 21.16485037 5.64472805 22.88531042 5.4296875 25.4296875 C3.67200477 42.83834647 -0.41080162 65.65359188 -14 78 C-14.91136719 78.94617188 -15.82273438 79.89234375 -16.76171875 80.8671875 C-27.67840751 92.15544497 -44.07378498 105.93530466 -60.5546875 107.1953125 C-61.32039062 107.17210937 -62.08609375 107.14890625 -62.875 107.125 C-63.65617187 107.10695313 -64.43734375 107.08890625 -65.2421875 107.0703125 C-65.82226562 107.04710937 -66.40234375 107.02390625 -67 107 C-67 106.34 -67 105.68 -67 105 C-67.5775 104.95875 -68.155 104.9175 -68.75 104.875 C-72.16998433 103.54500609 -73.20251232 101.09911668 -75 98 C-76.43953768 93.68138696 -76.46766801 89.78564148 -75.3125 85.375 C-71.6451686 78.73887651 -66.88654884 76.95958918 -59.9375 74.796875 C-57.3014528 74.08177709 -54.68530138 73.49362158 -52 73 C-52 72.34 -52 71.68 -52 71 C-50.52138826 69.89922265 -48.9895273 68.86959275 -47.4375 67.875 C-43.0720865 64.91738605 -39.77447274 61.83580184 -36.453125 57.76171875 C-35 56 -35 56 -32.875 54.125 C-27.9847518 48.58271871 -25.1922687 41.23309681 -24 34 C-23.76410156 32.66582031 -23.76410156 32.66582031 -23.5234375 31.3046875 C-22.62926501 24.9494476 -22.62926501 24.9494476 -25 19.1875 C-27 16 -27 16 -26.9375 12.75 C-26.00226465 10.00664296 -25.25526514 8.76499011 -23 7 C-18.125 8.75 -18.125 8.75 -17 11 C-16.83203125 13.0234375 -16.83203125 13.0234375 -16.8125 15.375 C-16.79832031 16.14585937 -16.78414062 16.91671875 -16.76953125 17.7109375 C-17 20 -17 20 -17.9453125 21.81640625 C-19.15814246 24.32741346 -19.44049858 26.68349401 -19.78369141 29.43139648 C-21.6650977 43.81212816 -27.47018939 57.85292936 -38.15234375 67.89453125 C-40.37915916 70.43206509 -41.11987239 72.76979342 -42 76 C-36.79446322 74.70051564 -34.31683265 72.70254159 -30.8125 68.6875 C-29.55373047 67.27017578 -29.55373047 67.27017578 -28.26953125 65.82421875 C-25.97063356 63.09464402 -25.97063356 63.09464402 -24.32421875 60.20703125 C-23 58 -23 58 -21 57 C-20.09656316 55.11736119 -20.09656316 55.11736119 -19.375 52.9375 C-19.11460937 52.20402344 -18.85421875 51.47054687 -18.5859375 50.71484375 C-18.39257812 50.14894531 -18.19921875 49.58304688 -18 49 C-17.34 49 -16.68 49 -16 49 C-16.02320313 48.34773438 -16.04640625 47.69546875 -16.0703125 47.0234375 C-16.2007282 40.70759136 -16.11979842 35.75573794 -12.125 30.5625 C-10 29 -10 29 -7.75 29.25 C-7.1725 29.4975 -6.595 29.745 -6 30 C-4.2434234 37.82475029 -6.97340037 42.4567756 -11 49 C-12.71909634 52.16313726 -13.95344085 54.77566955 -14.6875 58.3125 C-16.58701276 63.64922633 -20.14541224 66.94363779 -24 71 C-25.27789301 72.45215114 -26.54921306 73.91012472 -27.8125 75.375 C-29.38066434 77.18527998 -30.92815476 78.93103535 -32.65625 80.58984375 C-34.29384442 82.30836581 -34.60195502 83.69133913 -35 86 C-31.40622291 86 -29.10100813 85.91960633 -26.29296875 83.57421875 C-24.41791227 81.45325322 -22.70385456 79.26128846 -21 77 C-20.22914063 76.01386719 -19.45828125 75.02773437 -18.6640625 74.01171875 C-14.92899858 69.15855318 -11.60798059 64.56259151 -9 59 C-8.34 59 -7.68 59 -7 59 C-6.67 57.35 -6.34 55.7 -6 54 C-5.34 54 -4.68 54 -4 54 C-3.35025795 51.31339217 -2.70511582 48.62581326 -2.0625 45.9375 C-1.88009766 45.18533203 -1.69769531 44.43316406 -1.50976562 43.65820312 C1.93236545 29.51069444 1.93236545 29.51069444 -2 16 C-3.39276127 12.20156016 -3.49100632 7.99351805 -3 4 C-1.5 1.5 -1.5 1.5 0 0 Z " fill="#775390" transform="translate(190,142)"/>
<path d="M0 0 C0.85464844 -0.01417969 1.70929688 -0.02835937 2.58984375 -0.04296875 C5.0625 0.1875 5.0625 0.1875 6.8515625 1.14453125 C10.23917117 2.7425728 13.81512927 2.76002778 17.5 3.0625 C29.79813608 4.2812231 40.08850341 7.88693757 50.96875 13.6015625 C53.93447111 15.19441593 53.93447111 15.19441593 56.671875 16.17578125 C72.21915154 22.75542933 84.76023426 41.03659852 91.0625 56.1875 C93.21014842 61.52860825 94.9086425 66.37027032 94.0625 72.1875 C92.29152111 76.11572068 90.07174458 79.23762275 86.9375 82.1875 C82.32325604 83.79245442 77.88575152 83.82041536 73.0625 83.1875 C67.39769146 80.29483181 65.29216427 74.57328791 63.20703125 68.83203125 C57.22810628 52.40956921 45.14075999 42.60540718 29.73828125 35.40234375 C28.85527344 35.00144531 27.97226563 34.60054687 27.0625 34.1875 C27.0625 33.5275 27.0625 32.8675 27.0625 32.1875 C15.05490125 30.20227589 15.05490125 30.20227589 4.0625 34.1875 C0.47705901 34.62653359 -1.23892595 34.62870466 -4.3125 32.6875 C-4.84875 32.1925 -5.385 31.6975 -5.9375 31.1875 C-4.64990983 28.31518348 -3.55872831 25.99524366 -0.9375 24.1875 C5.00325085 23.64743174 5.00325085 23.64743174 7.95678711 25.15332031 C10.4437443 26.37474068 12.57156545 26.68995622 15.31640625 27.046875 C39.56423856 30.46575005 39.56423856 30.46575005 49.0625 40.1875 C50.42692622 41.40776043 51.80178753 42.61646681 53.1875 43.8125 C55.21171606 45.56172822 57.17018054 47.29518054 59.0625 49.1875 C61.13124034 49.8300235 61.13124034 49.8300235 63.0625 50.1875 C62.22652838 43.63905567 59.00092159 40.67465331 54.08203125 36.46875 C49.77250745 33.21291313 45.24034509 30.49469783 40.5546875 27.81640625 C39.73226562 27.27886719 38.90984375 26.74132812 38.0625 26.1875 C38.0625 25.5275 38.0625 24.8675 38.0625 24.1875 C37.4334375 24.12691406 36.804375 24.06632812 36.15625 24.00390625 C34.37189784 23.82923322 32.58806071 23.64924353 30.8046875 23.46484375 C29.12396842 23.29485649 27.44177128 23.13805212 25.7578125 23.00390625 C21.67865774 22.62677685 19.06001406 22.06011764 16.0625 19.1875 C16.63594937 16.32025314 16.9239515 15.3260485 19.0625 13.1875 C26.20408469 11.99723588 30.138301 14.69885528 36.109375 18.45703125 C38.71530045 19.98404841 40.86391252 20.89533963 43.75 21.6875 C49.13261983 23.29454117 52.8724577 26.54822865 57.0625 30.1875 C57.97128906 30.96351562 58.88007813 31.73953125 59.81640625 32.5390625 C66.91216555 38.73649666 66.91216555 38.73649666 68.0625 42.1875 C69.7125 42.1875 71.3625 42.1875 73.0625 42.1875 C71.84535669 36.14686284 69.85037589 33.36236676 65.1875 29.4375 C64.65769531 28.96957031 64.12789063 28.50164062 63.58203125 28.01953125 C61.35001188 26.06443736 59.09410337 24.21008864 56.6796875 22.484375 C56.14601563 22.05640625 55.61234375 21.6284375 55.0625 21.1875 C55.0625 20.5275 55.0625 19.8675 55.0625 19.1875 C53.7425 18.8575 52.4225 18.5275 51.0625 18.1875 C51.0625 17.5275 51.0625 16.8675 51.0625 16.1875 C50.20269531 15.9090625 49.34289062 15.630625 48.45703125 15.34375 C45.17222742 14.22487551 41.97089158 12.97742972 38.75 11.6875 C29.63434291 8.18939231 16.36107053 3.53460662 6.7734375 7.01953125 C5.52760072 7.74498765 4.29254413 8.4893501 3.0703125 9.25390625 C-0.94356764 11.12028243 -5.62408872 10.78677847 -9.9375 10.1875 C-10.9275 9.5275 -11.9175 8.8675 -12.9375 8.1875 C-11.64739008 5.30956249 -10.36388194 3.22566083 -7.9375 1.1875 C-5.02663331 0.2172111 -3.03526315 0.02282153 0 0 Z " fill="#785492" transform="translate(150.9375,68.8125)"/>
<path d="M0 0 C4.60665749 3.82525207 6.12339664 9.00936968 8.16064453 14.4543457 C10.93568316 21.70462269 14.76394561 27.17704343 19.875 33.0625 C20.48472656 33.77148438 21.09445313 34.48046875 21.72265625 35.2109375 C25.63584655 39.43611336 29.61155014 41.75396936 34.875 44.0625 C34.875 44.7225 34.875 45.3825 34.875 46.0625 C40.91482296 48.24032078 46.97109526 49.54941639 53.3125 50.4375 C54.35954102 50.60064697 54.35954102 50.60064697 55.42773438 50.76708984 C57.66556354 51.09232715 57.66556354 51.09232715 60.875 51.0625 C62.669111 49.74307194 62.669111 49.74307194 63.875 48.0625 C67.9337462 47.01023247 70.00180162 46.63519016 73.8125 48.5 C74.493125 49.015625 75.17375 49.53125 75.875 50.0625 C75.52478759 52.60153996 75.03488127 53.88343298 73.3125 55.8125 C69.64564114 57.69294044 66.98424462 57.38863053 62.875 57.0625 C61.39 56.0725 61.39 56.0725 59.875 55.0625 C58.05113835 54.75082744 56.21455417 54.511627 54.375 54.3125 C37.51933213 51.87485297 25.26344075 46.75132987 13.44921875 34.44140625 C11.38459535 32.6329396 9.59918697 32.14505112 6.875 32.0625 C9.48493549 40.24029788 15.80551766 46.34951177 22.875 51.0625 C25.46474276 52.14454306 28.08294356 53.06968368 30.73046875 54 C31.79201172 54.5259375 31.79201172 54.5259375 32.875 55.0625 C33.205 56.0525 33.535 57.0425 33.875 58.0625 C34.6484375 58.01609375 35.421875 57.9696875 36.21875 57.921875 C42.63838886 57.69941227 48.81003137 57.56647306 53.875 62.0625 C54.58203125 64.203125 54.58203125 64.203125 54.875 66.0625 C51.71049369 68.53477055 50.07636589 69.0625 46 69.0625 C42.24808619 68.42328505 40.01289442 66.82686142 37.04296875 64.44140625 C34.19077743 62.62730979 31.27974295 61.77603964 28.0625 60.75 C17.37855709 57.10954538 10.60489951 50.06996914 3.00390625 41.96875 C0.97877563 39.72896274 0.97877563 39.72896274 -2.125 40.0625 C-1.15212675 48.74114711 7.73540111 55.33134094 14.078125 60.72265625 C16.21688559 62.31742773 18.305677 63.33987791 20.875 64.0625 C20.875 64.7225 20.875 65.3825 20.875 66.0625 C21.72578125 66.3409375 22.5765625 66.619375 23.453125 66.90625 C26.87035984 68.06093209 30.24338384 69.30778269 33.625 70.5625 C42.91010734 73.86538708 51.93930424 76.16827301 61.875 75.0625 C63.55996298 74.09364628 65.22678756 73.09263277 66.875 72.0625 C72.73265772 70.93740111 77.38481114 70.48648747 82.875 73.0625 C82.75 75.375 82.75 75.375 81.875 78.0625 C77.71958049 80.83277967 73.83989279 81.89971663 68.875 82.0625 C66.21562347 81.45150275 63.63396646 80.67669939 61.0234375 79.8828125 C57.51602982 78.96897179 54.10040686 78.53329356 50.5 78.125 C37.0482203 76.46395028 22.67951339 71.81530024 10.875 65.0625 C10.545 64.0725 10.215 63.0825 9.875 62.0625 C9.31167969 61.94390625 8.74835937 61.8253125 8.16796875 61.703125 C4.7061908 60.73595024 2.63912239 58.3135471 0.1875 55.8125 C-0.33924316 55.27818359 -0.86598633 54.74386719 -1.40869141 54.19335938 C-12.28634492 42.86398155 -23.13030033 27.04125633 -24.75 11 C-23.89929383 5.64055116 -21.29971531 2.46506268 -17.125 -0.9375 C-11.48994407 -2.92765864 -5.21644921 -3.10551256 0 0 Z " fill="#785493" transform="translate(41.125,119.9375)"/>
<path d="M0 0 C15.66723099 0.68118396 28.12775599 3.99672329 42 11 C42 11.66 42 12.32 42 13 C42.556875 13.061875 43.11375 13.12375 43.6875 13.1875 C46.95768673 14.33648453 48.56720989 16.53304149 51 19 C52.10234486 19.97693136 53.21340824 20.94409451 54.33203125 21.90234375 C55.18764648 22.64967773 55.18764648 22.64967773 56.06054688 23.41210938 C57.23775057 24.43707714 58.42553027 25.45001182 59.62304688 26.45117188 C63.91440049 30.25208508 63.91440049 30.25208508 64.38671875 34.37890625 C64.25910156 35.24386719 64.13148438 36.10882813 64 37 C61.69921875 37.21875 61.69921875 37.21875 59 37 C57.33203125 35.53125 57.33203125 35.53125 55.8125 33.5 C48.46998797 24.47782836 39.3236091 18.23538074 28.2578125 14.859375 C25.86138687 13.94724068 24.03547238 12.77696699 21.9375 11.3125 C17.70776953 8.53489256 15.01121407 8.16479765 10 9 C7.4595774 11.33830958 7.4595774 11.33830958 6 14 C5.6875 11.75 5.6875 11.75 6 9 C8.22360897 6.89342308 10.26522868 5.36738566 13 4 C13 3.34 13 2.68 13 2 C8.38 2 3.76 2 -1 2 C-0.67 1.34 -0.34 0.68 0 0 Z " fill="#0D0910" transform="translate(160,74)"/>
<path d="M0 0 C4.51912853 0.38827835 6.88955318 3.64350648 9.8125 6.75 C17.44447057 14.55464476 23.16851741 18.21802484 33.6953125 21.734375 C36.56672447 22.83406469 38.50730228 23.8514774 40.875 25.75 C44.89421762 28.64383669 47.08665287 28.91945333 52 29 C55.43805898 27.91429716 55.92924808 27.10612788 58 24 C57.6875 26.375 57.6875 26.375 57 29 C53.68629 31.20914 52.6553979 31.22481553 48.8125 31.125 C47.91144531 31.10695312 47.01039062 31.08890625 46.08203125 31.0703125 C45.39496094 31.04710937 44.70789063 31.02390625 44 31 C44 31.66 44 32.32 44 33 C50.93 33.66 57.86 34.32 65 35 C64.505 35.99 64.505 35.99 64 37 C50.78181182 38.0081669 36.6855795 34.18192348 25 28 C24.50113281 27.49597656 24.00226562 26.99195313 23.48828125 26.47265625 C22.02135691 24.82668605 22.02135691 24.82668605 19.61328125 24.06640625 C12.1014705 21.0010485 3.20022319 11.91207901 -1 5 C-0.70703125 2.234375 -0.70703125 2.234375 0 0 Z " fill="#150F1A" transform="translate(39,159)"/>
<path d="M0 0 C1.134375 0.495 2.26875 0.99 3.4375 1.5 C7.43662566 3.02448939 10.72420339 3.13008336 14.95703125 2.984375 C17.69841026 3.00534157 19.61743936 3.66856905 22 5 C22.43570313 5.45632812 22.87140625 5.91265625 23.3203125 6.3828125 C25.36656162 8.35292212 27.55536724 9.61632917 30 11.0625 C36.16863477 14.94981056 42.41956285 19.26780883 47 25 C47.30078125 28.30859375 47.30078125 28.30859375 47 31 C42.99418384 30.87861163 41.22689227 29.45846796 38.5625 26.6875 C37.68078125 25.74390625 37.68078125 25.74390625 36.78125 24.78125 C35.12253474 23.12253474 33.54571806 21.92233389 31.5625 20.6875 C30.716875 20.130625 29.87125 19.57375 29 19 C29 18.34 29 17.68 29 17 C28.113125 16.731875 27.22625 16.46375 26.3125 16.1875 C23 15 23 15 20.64282227 13.49438477 C17.78894668 11.88065983 15.63206182 11.37347502 12.40234375 10.90234375 C11.35369141 10.74056641 10.30503906 10.57878906 9.22460938 10.41210938 C8.13986328 10.25548828 7.05511719 10.09886719 5.9375 9.9375 C3.77905322 9.61929204 1.62144898 9.29530203 -0.53515625 8.96484375 C-1.96420288 8.75782837 -1.96420288 8.75782837 -3.42211914 8.54663086 C-5.93182 8.01445734 -7.73539189 7.16190389 -10 6 C-13.5 5.5 -13.5 5.5 -17 6 C-19.44098818 7.85420839 -19.44098818 7.85420839 -21 10 C-20.67 10.99 -20.34 11.98 -20 13 C-17.52756353 14.23621824 -16.22682061 13.98408601 -13.5 13.6875 C-12.7059375 13.60886719 -11.911875 13.53023437 -11.09375 13.44921875 C-8.79145091 13.1534758 -8.79145091 13.1534758 -7 11 C-0.75670039 10.21088406 5.02898766 11.23081116 11 13 C11 13.33 11 13.66 11 14 C5.87100793 14.0932544 1.13250671 13.82575209 -3.921875 12.92578125 C-6.71547325 13.02555262 -7.7974724 14.34286019 -10 16 C-12.47265625 16.3984375 -12.47265625 16.3984375 -15.0625 16.375 C-15.91972656 16.38273437 -16.77695313 16.39046875 -17.66015625 16.3984375 C-20.44227561 15.92468762 -21.31869109 15.22746658 -23 13 C-23.5625 10.625 -23.5625 10.625 -23 8 C-20.41410442 5.09086747 -18.74532461 3.3167441 -14.890625 2.6171875 C-12.75 2.5625 -12.75 2.5625 -9 3 C-8.34 3.66 -7.68 4.32 -7 5 C-4.56747339 5.46162427 -4.56747339 5.46162427 -1.875 5.625 C-0.50988281 5.73714844 -0.50988281 5.73714844 0.8828125 5.8515625 C1.93082031 5.92503906 1.93082031 5.92503906 3 6 C3 6.66 3 7.32 3 8 C4.98 8 6.96 8 9 8 C9 7.34 9 6.68 9 6 C8.071875 5.71125 7.14375 5.4225 6.1875 5.125 C3 4 3 4 0 2 C0 1.34 0 0.68 0 0 Z " fill="#0F0A12" transform="translate(167,88)"/>
<path d="M0 0 C0.99 0.33 1.98 0.66 3 1 C4.1875 4.5625 4.1875 4.5625 5 8 C5.66 8 6.32 8 7 8 C6.5854252 14.17573496 5.53168407 19.32902769 3 25 C2.34 25.33 1.68 25.66 1 26 C0.34786708 28.02463255 0.34786708 28.02463255 0 30 C-0.66 30 -1.32 30 -2 30 C-2.23332031 30.85851562 -2.46664062 31.71703125 -2.70703125 32.6015625 C-4.1499122 36.39402904 -6.17218734 39.25016993 -8.6875 42.375 C-9.13520752 42.93791748 -9.58291504 43.50083496 -10.04418945 44.08081055 C-10.94211743 45.20438739 -11.84397492 46.32483672 -12.75 47.44189453 C-13.8503166 48.81342199 -14.91273634 50.2151708 -15.96875 51.62109375 C-20.09762789 56.88541307 -20.09762789 56.88541307 -24.9375 57.5 C-25.948125 57.335 -26.95875 57.17 -28 57 C-27.49472552 52.86528911 -26.51196776 51.08613921 -23.4375 48.3125 C-19.43033802 44.52194137 -16.04538629 40.45282778 -12.6640625 36.1015625 C-11 34 -11 34 -9 32 C-8.53588022 30.07721804 -8.07393505 28.15385257 -7.62890625 26.2265625 C-6.37522231 21.78805413 -4.34675479 17.54627402 -1.3125 14.0625 C0.81260338 10.72305182 0.97120168 6.90937161 1 3 C0.67 2.01 0.34 1.02 0 0 Z " fill="#130D18" transform="translate(183,171)"/>
<path d="M0 0 C1.36421031 2.72842061 0.87807211 4.60953318 0.5625 7.625 C0.46066406 8.62789062 0.35882813 9.63078125 0.25390625 10.6640625 C0.17011719 11.43492187 0.08632812 12.20578125 0 13 C0.886875 12.175 1.77375 11.35 2.6875 10.5 C5.01307407 8.53900524 5.74787194 8.02740522 8.875 7.6875 C9.57625 7.790625 10.2775 7.89375 11 8 C10.21625 8.61875 9.4325 9.2375 8.625 9.875 C4.46354884 13.2437938 3.60254747 14.67749738 3 20 C3.04125 21.216875 3.0825 22.43375 3.125 23.6875 C2.9787848 27.56220289 2.57812999 27.49120847 0 30 C-0.98628417 32.03077684 -0.98628417 32.03077684 -1.6875 34.1875 C-1.93886719 34.90292969 -2.19023437 35.61835938 -2.44921875 36.35546875 C-2.63097656 36.89816406 -2.81273437 37.44085938 -3 38 C-3.66 38 -4.32 38 -5 38 C-5.31517578 39.02673828 -5.31517578 39.02673828 -5.63671875 40.07421875 C-7.43856114 43.94121002 -9.93867353 46.69542341 -12.8125 49.8125 C-13.59463867 50.7087207 -13.59463867 50.7087207 -14.39257812 51.62304688 C-18.3154114 55.90828921 -18.3154114 55.90828921 -21.88671875 56.38671875 C-22.93279297 56.19529297 -22.93279297 56.19529297 -24 56 C-24.2109375 53.6953125 -24.2109375 53.6953125 -24 51 C-22.6015625 49.4296875 -22.6015625 49.4296875 -20.625 47.875 C-11.13766387 38.97956541 -5.06422127 24.65693567 -3 12 C-2.625 9.9375 -2.25 7.875 -1.875 5.8125 C-1.72804687 4.91144531 -1.58109375 4.01039063 -1.4296875 3.08203125 C-1 1 -1 1 0 0 Z " fill="#0A070C" transform="translate(172,162)"/>
<path d="M0 0 C0.825 0.144375 1.65 0.28875 2.5 0.4375 C6.32686278 1.05253152 10.15216707 1.53560637 14 2 C14.03867188 3.45019531 14.03867188 3.45019531 14.078125 4.9296875 C14.59140135 16.71171292 17.29898553 25.16818369 24 35 C17.7055645 35 14.57186976 32.59599309 10.078125 28.30859375 C4.08000745 21.64527144 -0.15563599 12.48687811 -0.1875 3.4375 C-0.125625 2.303125 -0.06375 1.16875 0 0 Z " fill="#241A2C" transform="translate(84,126)"/>
<path d="M0 0 C7.94791099 1.20126598 13.81089086 6.22347437 18.80859375 12.2890625 C21.70359245 16.44647047 22.31970644 19.661774 22.625 24.75 C22.69976562 25.92046875 22.77453125 27.0909375 22.8515625 28.296875 C22.90054688 29.18890625 22.94953125 30.0809375 23 31 C19.37 31 15.74 31 12 31 C11.74605469 29.9378125 11.49210938 28.875625 11.23046875 27.78125 C7.65800793 13.01518827 7.65800793 13.01518827 0 0 Z " fill="#845DA1" transform="translate(154,109)"/>
<path d="M0 0 C0.66 0.33 1.32 0.66 2 1 C1.34 2.98 0.68 4.96 0 7 C-0.66 7 -1.32 7 -2 7 C-2.185625 7.70125 -2.37125 8.4025 -2.5625 9.125 C-4.57799507 13.15599014 -7.49279181 15.26580913 -11 18 C-11.54914063 18.49242187 -12.09828125 18.98484375 -12.6640625 19.4921875 C-17.64438784 23.66999596 -21.61662275 23.43721762 -28 23 C-28 19.37 -28 15.74 -28 12 C-26.30875 11.649375 -24.6175 11.29875 -22.875 10.9375 C-15.16419842 9.02815866 -5.69857783 5.69857783 0 0 Z " fill="#473257" transform="translate(156,158)"/>
<path d="M0 0 C0 3.3 0 6.6 0 10 C-3.56420711 11.54145454 -6.9472912 12.43802432 -10.75 13.1875 C-17.09871681 14.69610597 -21.251939 17.62363064 -26 22 C-27 20 -27 20 -26 16.875 C-22.92186899 10.14246687 -17.51314987 4.46444142 -11 1 C-7.1484976 0.05677492 -4.01516286 0 0 0 Z " fill="#4C355C" transform="translate(132,90)"/>
<path d="M0 0 C0.66 1.65 1.32 3.3 2 5 C2.66 5 3.32 5 4 5 C4.24234375 5.50789062 4.4846875 6.01578125 4.734375 6.5390625 C6.87798137 10.94170019 9.19200344 14.98857634 12 19 C5.61044851 19 2.64262085 16.44184148 -1.984375 12.203125 C-5.42058716 8.4472652 -7 6.16999229 -7 1 C-4.53721199 -0.231394 -2.7204945 -0.07159196 0 0 Z " fill="#7C5796" transform="translate(96,142)"/>
<path d="M0 0 C0.99 0.495 0.99 0.495 2 1 C2.6328125 3.06640625 2.6328125 3.06640625 3.125 5.5625 C3.29257813 6.38878906 3.46015625 7.21507813 3.6328125 8.06640625 C3.75398437 8.70449219 3.87515625 9.34257812 4 10 C6.97 10 9.94 10 13 10 C13.33 8.68 13.66 7.36 14 6 C15.46670113 11.22512279 16.22577402 15.5814234 16 21 C12.37 21 8.74 21 5 21 C4.35269196 18.43786446 3.70710712 15.87531515 3.0625 13.3125 C2.88009766 12.59126953 2.69769531 11.87003906 2.50976562 11.12695312 C1.58174093 7.43172752 0.70201539 3.74654531 0 0 Z " fill="#402D4E" transform="translate(161,119)"/>
<path d="M0 0 C3.77807035 0.39769162 5.71137196 0.86946324 8.5625 3.375 C9.1875 5.75 9.1875 5.75 8.5625 8.375 C6.625 11.1875 6.625 11.1875 3.5625 13.375 C0.49912893 13.89260408 -2.37960425 13.9457271 -5.4375 13.375 C-6.0975 12.715 -6.7575 12.055 -7.4375 11.375 C-9.65803798 11.05736013 -11.89044978 10.82113607 -14.125 10.625 C-20.05180858 9.98599099 -25.28933348 8.61729685 -30.8125 6.375 C-31.46049561 6.11364258 -32.10849121 5.85228516 -32.77612305 5.58300781 C-37.29554145 3.6589171 -37.29554145 3.6589171 -38.4375 1.375 C-37.84324219 1.55675781 -37.24898438 1.73851562 -36.63671875 1.92578125 C-33.9069382 2.75363072 -31.17314527 3.56674117 -28.4375 4.375 C-27.51453125 4.64957031 -26.5915625 4.92414063 -25.640625 5.20703125 C-20.50833299 6.67857825 -15.64925283 7.74266941 -10.3125 8.06640625 C-8.4375 8.375 -8.4375 8.375 -5.4375 10.375 C0.10806318 10.90434825 0.10806318 10.90434825 5.0625 8.875 C5.5575 8.38 6.0525 7.885 6.5625 7.375 C6.0675 5.395 6.0675 5.395 5.5625 3.375 C0.24997853 2.13952989 -2.63381965 2.68436872 -7.2578125 5.47265625 C-9.99295398 6.604946 -11.77074221 6.38378392 -14.6875 6 C-15.57953125 5.88914063 -16.4715625 5.77828125 -17.390625 5.6640625 C-18.40382813 5.52097656 -18.40382813 5.52097656 -19.4375 5.375 C-19.4375 5.045 -19.4375 4.715 -19.4375 4.375 C-18.20773438 4.31892578 -18.20773438 4.31892578 -16.953125 4.26171875 C-15.87546875 4.19597656 -14.7978125 4.13023437 -13.6875 4.0625 C-12.62015625 4.00449219 -11.5528125 3.94648438 -10.453125 3.88671875 C-6.19981146 3.16497772 -4.31376794 0.47059287 0 0 Z " fill="#2B1E35" transform="translate(109.4375,165.625)"/>
<path d="M0 0 C4.26049937 0.56555301 7.71959272 1.59981487 11.625 3.375 C21.01403616 7.38068004 29.80176104 9.13068146 39.96484375 9.67578125 C42.86345863 9.9854145 45.05764427 10.61524007 47.75 11.6875 C52.5182636 13.49645451 56.28769871 12.70291576 61 11 C62.34474368 10.35665976 63.68180692 9.69612443 65 9 C65 7.35 65 5.7 65 4 C65.99 4.33 66.98 4.66 68 5 C68 7.1875 68 7.1875 67 10 C62.94911011 14.00756486 58.81631788 15.33284734 53.1875 15.4375 C49.41064118 15.34694062 48.23589007 15.15726005 45 13 C42.3322852 12.74892096 39.73495173 12.58134589 37.0625 12.5 C32.59773342 12.36336448 28.96492307 12.21837032 25 10 C23.00807799 9.54628443 21.00660176 9.13361504 19 8.75 C12.04580442 7.23000029 6.19246489 4.44769667 0 1 C0 0.67 0 0.34 0 0 Z " fill="#201627" transform="translate(58,188)"/>
<path d="M0 0 C0.66 0.66 1.32 1.32 2 2 C4.43252661 2.46162427 4.43252661 2.46162427 7.125 2.625 C8.03507812 2.69976562 8.94515625 2.77453125 9.8828125 2.8515625 C10.93082031 2.92503906 10.93082031 2.92503906 12 3 C12 3.66 12 4.32 12 5 C12.62648437 5.04898438 13.25296875 5.09796875 13.8984375 5.1484375 C14.71570313 5.22320312 15.53296875 5.29796875 16.375 5.375 C17.59316406 5.47941406 17.59316406 5.47941406 18.8359375 5.5859375 C21 6 21 6 23 8 C21.46822743 7.78626429 19.93674861 7.57033125 18.40625 7.34765625 C16.53234935 7.07691411 14.65705186 6.81583357 12.78125 6.55859375 C11.6365625 6.39488281 10.491875 6.23117188 9.3125 6.0625 C8.21550781 5.90910156 7.11851562 5.75570312 5.98828125 5.59765625 C3.26080487 5.05216097 1.42984052 4.27475573 -1 3 C-4.5 2.5 -4.5 2.5 -8 3 C-10.44098818 4.85420839 -10.44098818 4.85420839 -12 7 C-11.67 7.99 -11.34 8.98 -11 10 C-8.52756353 11.23621824 -7.22682061 10.98408601 -4.5 10.6875 C-3.7059375 10.60886719 -2.911875 10.53023437 -2.09375 10.44921875 C0.20854909 10.1534758 0.20854909 10.1534758 2 8 C8.24329961 7.21088406 14.02898766 8.23081116 20 10 C20 10.33 20 10.66 20 11 C14.87100793 11.0932544 10.13250671 10.82575209 5.078125 9.92578125 C2.28452675 10.02555262 1.2025276 11.34286019 -1 13 C-3.47265625 13.3984375 -3.47265625 13.3984375 -6.0625 13.375 C-6.91972656 13.38273437 -7.77695313 13.39046875 -8.66015625 13.3984375 C-11.44227561 12.92468762 -12.31869109 12.22746658 -14 10 C-14.5625 7.625 -14.5625 7.625 -14 5 C-9.55038901 -0.00581236 -6.59337679 -0.76922729 0 0 Z " fill="#2D1F36" transform="translate(158,91)"/>
<path d="M0 0 C1.36421031 2.72842061 0.87807211 4.60953318 0.5625 7.625 C0.46066406 8.62789062 0.35882813 9.63078125 0.25390625 10.6640625 C0.17011719 11.43492187 0.08632812 12.20578125 0 13 C0.886875 12.175 1.77375 11.35 2.6875 10.5 C5.01307407 8.53900524 5.74787194 8.02740522 8.875 7.6875 C9.57625 7.790625 10.2775 7.89375 11 8 C10.21625 8.61875 9.4325 9.2375 8.625 9.875 C4.46354884 13.2437938 3.60254747 14.67749738 3 20 C3.020625 21.2375 3.04125 22.475 3.0625 23.75 C3 27 3 27 1 29 C1.04125 27.906875 1.0825 26.81375 1.125 25.6875 C1.32074666 21.91107771 1.32074666 21.91107771 -1 19 C-1.33 19.99 -1.66 20.98 -2 22 C-2.66 22 -3.32 22 -4 22 C-4.10183594 22.85851562 -4.20367187 23.71703125 -4.30859375 24.6015625 C-5.05797412 28.28495755 -6.32623231 31.05023208 -8.0625 34.375 C-8.61035156 35.43460938 -9.15820312 36.49421875 -9.72265625 37.5859375 C-10.14417969 38.38257813 -10.56570312 39.17921875 -11 40 C-11.66 40 -12.32 40 -13 40 C-11.72032442 35.86847598 -10.11783112 32.20577899 -8.125 28.375 C-4.24580853 20.19929572 -2.85524176 11.62075943 -1.38549805 2.74316406 C-1 1 -1 1 0 0 Z " fill="#34243F" transform="translate(172,162)"/>
<path d="M0 0 C0.66 0.33 1.32 0.66 2 1 C1.34 2.98 0.68 4.96 0 7 C-0.66 7 -1.32 7 -2 7 C-2.185625 7.70125 -2.37125 8.4025 -2.5625 9.125 C-4.50606978 13.01213956 -7.29177586 15.72343201 -11 18 C-12.32 18 -13.64 18 -15 18 C-15 15.36 -15 12.72 -15 10 C-13.02 9.67 -11.04 9.34 -9 9 C-9 8.01 -9 7.02 -9 6 C-7.03125 4.39453125 -7.03125 4.39453125 -4.5 2.8125 C-3.24703125 2.01779297 -3.24703125 2.01779297 -1.96875 1.20703125 C-0.99421875 0.60955078 -0.99421875 0.60955078 0 0 Z " fill="#795593" transform="translate(156,158)"/>
<path d="M0 0 C3.96 0 7.92 0 12 0 C10 2 10 2 6.875 2.125 C5.92625 2.08375 4.9775 2.0425 4 2 C4 5.63 4 9.26 4 13 C5.98 13 7.96 13 10 13 C6.47320901 15.35119399 4.97120515 15.21443452 0.8125 15.125 C-0.27417969 15.10695312 -1.36085938 15.08890625 -2.48046875 15.0703125 C-3.72763672 15.03550781 -3.72763672 15.03550781 -5 15 C-4.360625 14.01 -3.72125 13.02 -3.0625 12 C-0.74593674 7.99717514 -0.32145895 4.58078998 0 0 Z " fill="#251A2D" transform="translate(124,168)"/>
<path d="M0 0 C17.38394928 -0.91094931 33.17171711 2.59716957 48 12 C48.495 13.485 48.495 13.485 49 15 C45.59166782 13.67318497 42.29810216 12.20366475 39 10.625 C28.79662973 6.01921768 19.03422001 3.57419463 7.91577148 2.68286133 C2.1959775 2.1959775 2.1959775 2.1959775 0 0 Z " fill="#33243E" transform="translate(158,70)"/>
<path d="M0 0 C-0.33 4.29 -0.66 8.58 -1 13 C-3.64 13 -6.28 13 -9 13 C-8.34 12.67 -7.68 12.34 -7 12 C-7 8.7 -7 5.4 -7 2 C-9.31 2.33 -11.62 2.66 -14 3 C-13.67 2.34 -13.34 1.68 -13 1 C-8.65012229 -0.03568517 -4.45537928 -0.08910759 0 0 Z " fill="#32233D" transform="translate(139,88)"/>
<path d="M0 0 C3.3 0 6.6 0 10 0 C13.34821429 8.03571429 13.34821429 8.03571429 12 12 C11.34 10.68 10.68 9.36 10 8 C7.69 8 5.38 8 3 8 C2.67 8.99 2.34 9.98 2 11 C0.19769832 7.17010894 -0.19622241 4.21878192 0 0 Z " fill="#543B66" transform="translate(86,135)"/>
<path d="M0 0 C2.6331038 3.94965569 3.12274339 6.54875885 3.0625 11.1875 C3.05347656 12.08855469 3.04445312 12.98960937 3.03515625 13.91796875 C3.02355469 14.60503906 3.01195312 15.29210937 3 16 C-2.07401399 16 -7.00714684 14.85898549 -12 14 C-12 9.71 -12 5.42 -12 1 C-11.67 1 -11.34 1 -11 1 C-10.67 4.3 -10.34 7.6 -10 11 C-6.37 11 -2.74 11 1 11 C0.67 7.37 0.34 3.74 0 0 Z " fill="#251A2D" transform="translate(176,129)"/>
<path d="M0 0 C0.375 3.19140625 0.375 3.19140625 0 7 C-2.03897909 9.06021845 -3.62733167 10.40114381 -6 11.9375 C-6.57234375 12.33517578 -7.1446875 12.73285156 -7.734375 13.14257812 C-9.1419077 14.11612158 -10.56917657 15.06102212 -12 16 C-12.33 15.34 -12.66 14.68 -13 14 C-10.78645887 8.02343896 -7.56430729 0 0 0 Z " fill="#845CA0" transform="translate(118,96)"/>
<path d="M0 0 C0 0.66 0 1.32 0 2 C-1.98 2.33 -3.96 2.66 -6 3 C-6 5.64 -6 8.28 -6 11 C-5.34 11.33 -4.68 11.66 -4 12 C-6 14 -6 14 -9.125 14.125 C-10.548125 14.063125 -10.548125 14.063125 -12 14 C-12.0270043 12.54176788 -12.04639787 11.08339325 -12.0625 9.625 C-12.07410156 8.81289062 -12.08570313 8.00078125 -12.09765625 7.1640625 C-12 5 -12 5 -11 3 C-9.00390625 2.1484375 -9.00390625 2.1484375 -6.5625 1.375 C-5.75941406 1.11460937 -4.95632812 0.85421875 -4.12890625 0.5859375 C-2 0 -2 0 0 0 Z " fill="#523964" transform="translate(147,165)"/>
<path d="M0 0 C0 2.97 0 5.94 0 9 C-1.96466413 10.06775224 -3.96855359 11.06553465 -6 12 C-6.66 11.67 -7.32 11.34 -8 11 C-7.67 8.69 -7.34 6.38 -7 4 C-8.32 4.99 -9.64 5.98 -11 7 C-11.66 6.67 -12.32 6.34 -13 6 C-8.79514856 2.0954951 -5.99680369 0 0 0 Z " fill="#67487D" transform="translate(125,92)"/>
<path d="M0 0 C6 6 6 6 6.0625 9.0625 C6.041875 10.031875 6.02125 11.00125 6 12 C3.03 12 0.06 12 -3 12 C-3.66 9.69 -4.32 7.38 -5 5 C-2.69 5 -0.38 5 2 5 C1.34 3.35 0.68 1.7 0 0 Z " fill="#69497F" transform="translate(168,117)"/>
<path d="M0 0 C0.66 1.65 1.32 3.3 2 5 C2.66 5 3.32 5 4 5 C4.33 6.32 4.66 7.64 5 9 C4.34 9 3.68 9 3 9 C3 8.34 3 7.68 3 7 C-0.93075644 7.57452746 -0.93075644 7.57452746 -4 10 C-6.29379749 6.55930376 -7 5.27709699 -7 1 C-4.53721199 -0.231394 -2.7204945 -0.07159196 0 0 Z " fill="#6D4C84" transform="translate(96,142)"/>
<path d="M0 0 C2.625 -0.1875 2.625 -0.1875 5 0 C4.175 0.66 3.35 1.32 2.5 2 C-0.15823449 5.18988139 -0.62857498 6.75919647 -0.37109375 10.87109375 C0.38145383 15.18834041 2.0434075 19.08681499 4 23 C4.17472712 28.15445016 3.84676589 32.91940468 3 38 C2.67 38 2.34 38 2 38 C1.96261719 36.91460937 1.92523438 35.82921875 1.88671875 34.7109375 C1.82102125 33.26559261 1.75457524 31.82028161 1.6875 30.375 C1.66494141 29.66214844 1.64238281 28.94929688 1.61914062 28.21484375 C1.37544873 23.38531351 0.21925735 20.35044893 -2 16 C-2.36328125 12.67578125 -2.36328125 12.67578125 -2.3125 9.3125 C-2.30863281 8.19488281 -2.30476562 7.07726562 -2.30078125 5.92578125 C-2 3 -2 3 0 0 Z " fill="#261B2F" transform="translate(188,141)"/>
<path d="M0 0 C3.93895836 1.08949912 4.68470663 1.52705994 7 5 C8.9466071 6.21418833 8.9466071 6.21418833 11.125 7.1875 C11.84945312 7.53167969 12.57390625 7.87585938 13.3203125 8.23046875 C13.87460938 8.48441406 14.42890625 8.73835938 15 9 C14.01 9.33 13.02 9.66 12 10 C9.36328125 8.56640625 9.36328125 8.56640625 6.3125 6.5625 C1.09424028 3.41387654 -1.96695829 1.70720535 -8 3 C-10.5404226 5.33830958 -10.5404226 5.33830958 -12 8 C-12.36590997 3.48711043 -12.36590997 3.48711043 -10.76171875 1.3515625 C-7.56736998 -1.09909088 -3.84514885 -0.39194839 0 0 Z " fill="#3B2A48" transform="translate(178,80)"/>
<path d="M0 0 C1.75570312 0.01353516 1.75570312 0.01353516 3.546875 0.02734375 C4.43890625 0.03894531 5.3309375 0.05054687 6.25 0.0625 C6.25 0.7225 6.25 1.3825 6.25 2.0625 C5.44175781 2.02769531 4.63351563 1.99289063 3.80078125 1.95703125 C2.19783203 1.91642578 2.19783203 1.91642578 0.5625 1.875 C-0.49324219 1.84019531 -1.54898438 1.80539063 -2.63671875 1.76953125 C-6.14670676 2.09983125 -7.94056761 2.97549308 -10.75 5.0625 C-12.07793606 7.12950655 -12.07793606 7.12950655 -12.75 9.0625 C-9.74686252 10.56406874 -6.95932478 10.15531204 -3.625 10.125 C-2.34367188 10.11597656 -1.06234375 10.10695313 0.2578125 10.09765625 C1.24523437 10.08605469 2.23265625 10.07445313 3.25 10.0625 C1.25 12.0625 1.25 12.0625 -1.9375 12.328125 C-3.8246875 12.32039063 -3.8246875 12.32039063 -5.75 12.3125 C-7.008125 12.31765625 -8.26625 12.3228125 -9.5625 12.328125 C-12.75 12.0625 -12.75 12.0625 -14.75 10.0625 C-15.125 7.6875 -15.125 7.6875 -14.75 5.0625 C-10.5944526 -0.28034666 -6.4341447 -0.06434145 0 0 Z " fill="#1F1626" transform="translate(151.75,67.9375)"/>
<path d="M0 0 C0.99 0.495 0.99 0.495 2 1 C2.90591398 3.95820059 3.40058396 6.96010437 4 10 C7.3 10 10.6 10 14 10 C13.67 11.32 13.34 12.64 13 14 C6.51582428 14.36702881 6.51582428 14.36702881 4.375 12.84375 C2.58162747 10.43900047 2.03002159 8.21675406 1.3125 5.3125 C1.06113281 4.31863281 0.80976563 3.32476562 0.55078125 2.30078125 C0.36902344 1.54152344 0.18726563 0.78226562 0 0 Z " fill="#4B355B" transform="translate(161,119)"/>
<path d="M0 0 C3.96 0 7.92 0 12 0 C10 4 10 4 8 7 C7.54860541 9.0492094 7.54860541 9.0492094 7.375 11.1875 C7.25125 12.445625 7.1275 13.70375 7 15 C3.04 15 -0.92 15 -5 15 C-5 14.67 -5 14.34 -5 14 C-1.37 14 2.26 14 6 14 C5.979375 12.5975 5.95875 11.195 5.9375 9.75 C5.89170234 6.63575911 6.1276588 3.99480917 7 1 C4.69 1 2.38 1 0 1 C0 0.67 0 0.34 0 0 Z " fill="#17101C" transform="translate(132,87)"/>
<path d="M0 0 C4.26049937 0.56555301 7.71959272 1.59981487 11.625 3.375 C17.62079271 5.96716602 23.62903626 7.6105877 30 9 C30 9.33 30 9.66 30 10 C19.05147426 9.56895568 9.27658449 6.90328104 0 1 C0 0.67 0 0.34 0 0 Z " fill="#3E2B4B" transform="translate(58,188)"/>
<path d="M0 0 C0.89138672 0.27263672 0.89138672 0.27263672 1.80078125 0.55078125 C4.5305618 1.37863072 7.26435473 2.19174117 10 3 C10.92296875 3.27457031 11.8459375 3.54914063 12.796875 3.83203125 C18.55733396 5.48368827 24.02574217 6.51030673 30 7 C30 7.33 30 7.66 30 8 C18.98482774 8.91651664 10.72992856 7.08220896 1 2 C0.67 1.34 0.34 0.68 0 0 Z " fill="#3D2B4B" transform="translate(71,167)"/>
<path d="M0 0 C0.66 0.33 1.32 0.66 2 1 C1.34 2.98 0.68 4.96 0 7 C-0.66 7 -1.32 7 -2 7 C-2.66 8.65 -3.32 10.3 -4 12 C-4.99 12 -5.98 12 -7 12 C-6.2429571 7.45774259 -5.51110933 4.24444298 -1.875 1.25 C-1.25625 0.8375 -0.6375 0.425 0 0 Z " fill="#825B9E" transform="translate(156,158)"/>
<path d="M0 0 C0 1.65 0 3.3 0 5 C-3.63 5 -7.26 5 -11 5 C-11 3.68 -11 2.36 -11 1 C-9.35422741 0.83273455 -7.70838013 0.66620388 -6.0625 0.5 C-4.68771484 0.36078125 -4.68771484 0.36078125 -3.28515625 0.21875 C-1 0 -1 0 0 0 Z " fill="#34243F" transform="translate(177,135)"/>
<path d="M0 0 C1.22589844 0.01353516 1.22589844 0.01353516 2.4765625 0.02734375 C3.41628906 0.04474609 3.41628906 0.04474609 4.375 0.0625 C4.705 1.7125 5.035 3.3625 5.375 5.0625 C1.745 4.7325 -1.885 4.4025 -5.625 4.0625 C-5.955 5.0525 -6.285 6.0425 -6.625 7.0625 C-6.625 5.0825 -6.625 3.1025 -6.625 1.0625 C-4.21954362 -0.14022819 -2.67503047 -0.03821472 0 0 Z " fill="#382744" transform="translate(91.625,130.9375)"/>
<path d="M0 0 C0.66 0.33 1.32 0.66 2 1 C-7.75624462 12.416882 -7.75624462 12.416882 -12 16 C-12.66 16 -13.32 16 -14 16 C-12.34136495 11.67495164 -9.128959 8.90581175 -5.875 5.75 C-5.31167969 5.19570313 -4.74835938 4.64140625 -4.16796875 4.0703125 C-2.78313972 2.70895515 -1.39216796 1.35385141 0 0 Z " fill="#694A80" transform="translate(99,37)"/>
<path d="M0 0 C-0.33 1.32 -0.66 2.64 -1 4 C-1 3.01 -1 2.02 -1 1 C-5.26763313 3.2859534 -8.47663624 6.23583857 -11.8125 9.6875 C-12.31458984 10.19861328 -12.81667969 10.70972656 -13.33398438 11.23632812 C-14.56063509 12.48634362 -15.78097491 13.7425468 -17 15 C-17.66 14.67 -18.32 14.34 -19 14 C-17.60919892 12.41224451 -16.21211596 10.82999061 -14.8125 9.25 C-13.64654297 7.92742188 -13.64654297 7.92742188 -12.45703125 6.578125 C-5.58010618 -0.63772642 -5.58010618 -0.63772642 0 0 Z " fill="#1D1423" transform="translate(107,42)"/>
<path d="M0 0 C3.3 0 6.6 0 10 0 C10.33 1.65 10.66 3.3 11 5 C8.98177083 4.73958333 6.96354167 4.47916667 4.9453125 4.21875 C2.99501656 3.9627515 2.99501656 3.9627515 1 4 C0.67 4.66 0.34 5.32 0 6 C0 4.02 0 2.04 0 0 Z " fill="#463156" transform="translate(86,135)"/>
<path d="M0 0 C0.99 0 1.98 0 3 0 C3 3.3 3 6.6 3 10 C5.64 9.67 8.28 9.34 11 9 C10.67 9.66 10.34 10.32 10 11 C6.7 11 3.4 11 0 11 C0 7.37 0 3.74 0 0 Z " fill="#352541" transform="translate(128,170)"/>
<path d="M0 0 C0.33 0 0.66 0 1 0 C1 3.96 1 7.92 1 12 C4.96 12 8.92 12 13 12 C13.33 9.69 13.66 7.38 14 5 C14.33 5 14.66 5 15 5 C15 8.3 15 11.6 15 15 C9.92598601 15 4.99285316 13.85898549 0 13 C0 8.71 0 4.42 0 0 Z " fill="#140E18" transform="translate(164,130)"/>
<path d="M0 0 C8.0037999 1.35657625 14.73831954 4.43088967 22 8 C22 8.66 22 9.32 22 10 C18.49701136 8.94910341 15.29516692 7.68880065 12.0625 6 C9.41918211 4.62750802 6.94615654 3.61955067 4.0625 2.875 C3.051875 2.58625 2.04125 2.2975 1 2 C0.67 1.34 0.34 0.68 0 0 Z " fill="#392845" transform="translate(180,77)"/>
<path d="M0 0 C1.65 0 3.3 0 5 0 C5 3.3 5 6.6 5 10 C4.01 10.33 3.02 10.66 2 11 C1.34 7.37 0.68 3.74 0 0 Z " fill="#432F52" transform="translate(127,90)"/>
<path d="M0 0 C0 1.98 0 3.96 0 6 C0.99 6.33 1.98 6.66 3 7 C0 9 0 9 -4 9 C-4 6.36 -4 3.72 -4 1 C-1 0 -1 0 0 0 Z " fill="#6F4E87" transform="translate(145,167)"/>
<path d="M0 0 C0.66 0.33 1.32 0.66 2 1 C2 2.98 2 4.96 2 7 C-0.97 7 -3.94 7 -7 7 C-6.67 5.68 -6.34 4.36 -6 3 C-4.35 3 -2.7 3 -1 3 C-0.67 2.01 -0.34 1.02 0 0 Z " fill="#5D4170" transform="translate(172,122)"/>
<path d="M0 0 C0 0.66 0 1.32 0 2 C-1.98 2.33 -3.96 2.66 -6 3 C-6 5.64 -6 8.28 -6 11 C-5.34 11.33 -4.68 11.66 -4 12 C-5.65 11.67 -7.3 11.34 -9 11 C-9 8.69 -9 6.38 -9 4 C-8.34 4 -7.68 4 -7 4 C-7 3.34 -7 2.68 -7 2 C-2.25 0 -2.25 0 0 0 Z " fill="#5D4171" transform="translate(147,165)"/>
<path d="M0 0 C0.94361888 3.33624218 0.94105764 5.02541445 -0.25 8.3125 C-0.52972656 9.09109375 -0.80945313 9.8696875 -1.09765625 10.671875 C-2.31846343 13.82166323 -3.6218957 16.91567133 -5 20 C-6.02826931 16.86332092 -5.99386675 15.16815258 -4.78515625 12.109375 C-4.37426758 11.04589844 -4.37426758 11.04589844 -3.95507812 9.9609375 C-3.66052734 9.23132813 -3.36597656 8.50171875 -3.0625 7.75 C-2.77181641 7.00492188 -2.48113281 6.25984375 -2.18164062 5.4921875 C-1.46426278 3.65758186 -0.73342561 1.82824935 0 0 Z " fill="#372743" transform="translate(192,185)"/>
<path d="M0 0 C2.31 0 4.62 0 7 0 C6.67 4.29 6.34 8.58 6 13 C5.01 12.67 4.02 12.34 3 12 C3.33 8.37 3.66 4.74 4 1 C2.68 0.67 1.36 0.34 0 0 Z " fill="#251A2D" transform="translate(132,88)"/>
<path d="M0 0 C0.66 0.33 1.32 0.66 2 1 C-2.62 5.62 -7.24 10.24 -12 15 C-12 10.09687565 -8.29800369 7.38658643 -5 4 C-3.37458956 2.61667196 -1.72614587 1.25537882 0 0 Z " fill="#1D1424" transform="translate(119,59)"/>
<path d="M0 0 C0.66 0 1.32 0 2 0 C0.46356148 3.68069887 -1.78150945 5.98775204 -4.625 8.75 C-5.85089844 9.94882812 -5.85089844 9.94882812 -7.1015625 11.171875 C-7.72804688 11.77515625 -8.35453125 12.3784375 -9 13 C-9.66 12.67 -10.32 12.34 -11 12 C-9.54234835 10.37438849 -8.08385614 8.74953066 -6.625 7.125 C-5.81289062 6.22007813 -5.00078125 5.31515625 -4.1640625 4.3828125 C-2.80923795 2.89103817 -1.42494565 1.42494565 0 0 Z " fill="#1C1322" transform="translate(108,53)"/>
<path d="M0 0 C1.98 0 3.96 0 6 0 C6 0.66 6 1.32 6 2 C7.32 2.66 8.64 3.32 10 4 C9.67 4.66 9.34 5.32 9 6 C7.02 5.34 5.04 4.68 3 4 C2.67 4.66 2.34 5.32 2 6 C1.34 5.34 0.68 4.68 0 4 C0 2.68 0 1.36 0 0 Z " fill="#7A5595" transform="translate(93,149)"/>
<path d="M0 0 C0.33 0 0.66 0 1 0 C1 1.98 1 3.96 1 6 C4.3 5.67 7.6 5.34 11 5 C7.47320901 7.35119399 5.97120515 7.21443452 1.8125 7.125 C0.72582031 7.10695312 -0.36085938 7.08890625 -1.48046875 7.0703125 C-2.72763672 7.03550781 -2.72763672 7.03550781 -4 7 C-2.68 4.69 -1.36 2.38 0 0 Z " fill="#17101C" transform="translate(123,176)"/>
<path d="M0 0 C0 2.97 0 5.94 0 9 C-0.99 9.33 -1.98 9.66 -3 10 C-3 7.36 -3 4.72 -3 2 C-4.65 2.33 -6.3 2.66 -8 3 C-7.67 2.34 -7.34 1.68 -7 1 C-2.2 0 -2.2 0 0 0 Z " fill="#5C4170" transform="translate(125,92)"/>
<path d="M0 0 C2.04136395 -0.05451714 4.08315856 -0.09302485 6.125 -0.125 C7.83042969 -0.15980469 7.83042969 -0.15980469 9.5703125 -0.1953125 C13.05757767 0.00327891 15.7553862 0.7475199 19 2 C19 2.66 19 3.32 19 4 C18.07380859 3.80083984 18.07380859 3.80083984 17.12890625 3.59765625 C11.42372675 2.40799173 5.80069316 1.5613574 0 1 C0 0.67 0 0.34 0 0 Z " fill="#352540" transform="translate(75,177)"/>
<path d="M0 0 C0.66 0 1.32 0 2 0 C2 2.31 2 4.62 2 7 C0.02 7.99 0.02 7.99 -2 9 C-2.25 3.375 -2.25 3.375 0 0 Z " fill="#7E5899" transform="translate(116,96)"/>
<path d="M0 0 C2.625 -0.1875 2.625 -0.1875 5 0 C3.7934375 0.8971875 3.7934375 0.8971875 2.5625 1.8125 C-1.35490427 5.61924313 -0.90072123 10.84652934 -1 16 C-1.33 16 -1.66 16 -2 16 C-2.05402274 13.89611431 -2.09280256 11.79183286 -2.125 9.6875 C-2.14820313 8.51574219 -2.17140625 7.34398437 -2.1953125 6.13671875 C-2 3 -2 3 0 0 Z " fill="#1A121F" transform="translate(188,141)"/>
<path d="M0 0 C0.33 0.99 0.66 1.98 1 3 C-1.64 3.66 -4.28 4.32 -7 5 C-7 3.68 -7 2.36 -7 1 C-4.53721199 -0.231394 -2.7204945 -0.07159196 0 0 Z " fill="#65467A" transform="translate(96,142)"/>
<path d="M0 0 C1.21236328 0.04060547 1.21236328 0.04060547 2.44921875 0.08203125 C3.06410156 0.11683594 3.67898437 0.15164062 4.3125 0.1875 C4.3125 0.5175 4.3125 0.8475 4.3125 1.1875 C1.6725 1.1875 -0.9675 1.1875 -3.6875 1.1875 C-3.97625 1.785625 -4.265 2.38375 -4.5625 3 C-5.6875 5.1875 -5.6875 5.1875 -7.6875 8.1875 C-8.05266854 3.68375468 -8.05266854 3.68375468 -6.46875 1.53125 C-4.16764554 -0.20467091 -2.84767456 -0.12381194 0 0 Z " fill="#2F2139" transform="translate(173.6875,79.8125)"/>
<path d="M0 0 C1.98 0.99 1.98 0.99 4 2 C4 2.66 4 3.32 4 4 C3.01 4 2.02 4 1 4 C1 6.31 1 8.62 1 11 C0.67 11 0.34 11 0 11 C0 7.37 0 3.74 0 0 Z " fill="#0F0B13" transform="translate(83,122)"/>
<path d="M0 0 C1.23556641 0.01740234 1.23556641 0.01740234 2.49609375 0.03515625 C3.32238281 0.04417969 4.14867187 0.05320312 5 0.0625 C5.63808594 0.07410156 6.27617187 0.08570312 6.93359375 0.09765625 C6.93359375 0.42765625 6.93359375 0.75765625 6.93359375 1.09765625 C5.86109375 1.20078125 4.78859375 1.30390625 3.68359375 1.41015625 C0.07538503 2.07166118 -1.43035648 2.67249046 -4.06640625 5.09765625 C-2.94676868 0.13926128 -2.94676868 0.13926128 0 0 Z " fill="#2F2139" transform="translate(150.06640625,91.90234375)"/>
<path d="M0 0 C3.65316671 1.24976756 4.78065836 1.67098753 7 5 C4.625 4.75 4.625 4.75 2 4 C0.6875 1.9375 0.6875 1.9375 0 0 Z " fill="#8A61A8" transform="translate(101,156)"/>
<path d="M0 0 C3.96 0 7.92 0 12 0 C11.34 1.32 10.68 2.64 10 4 C9.67 3.01 9.34 2.02 9 1 C6.03 1 3.06 1 0 1 C0 0.67 0 0.34 0 0 Z " fill="#0D0910" transform="translate(132,87)"/>
<path d="M0 0 C0.78375 0.04125 1.5675 0.0825 2.375 0.125 C-0.24014317 2.24538635 -2.82137616 4.25591744 -5.625 6.125 C-4.86443086 2.32215429 -4.27658992 0.20364714 0 0 Z " fill="#3C2A49" transform="translate(180.625,169.875)"/>
<path d="M0 0 C0.66 0 1.32 0 2 0 C1.6875 2.375 1.6875 2.375 1 5 C0.01 5.66 -0.98 6.32 -2 7 C-1.34 4.69 -0.68 2.38 0 0 Z " fill="#8C62AA" transform="translate(107,105)"/>
</svg>
